<mxfile host="app.diagrams.net" agent="Mozilla/5.0 (Windows NT 10.0; Win64; x64) AppleWebKit/537.36 (KHTML, like Gecko) Chrome/127.0.0.0 Safari/537.36 Edg/127.0.0.0" version="24.7.6">
  <diagram name="第 1 页" id="aR6fz9WEj9mcm1sEb_uZ">
    <mxGraphModel dx="1467" dy="790" grid="1" gridSize="10" guides="1" tooltips="1" connect="1" arrows="1" fold="1" page="1" pageScale="1" pageWidth="827" pageHeight="1169" math="0" shadow="0">
      <root>
        <mxCell id="0" />
        <mxCell id="1" parent="0" />
        <mxCell id="D0aGx_ihcFA379OP37kN-1" value="&lt;font style=&quot;font-size: 14px;&quot;&gt;最令外国游客向往的50个城市&lt;/font&gt;" style="rounded=1;whiteSpace=wrap;html=1;" vertex="1" parent="1">
          <mxGeometry x="160" y="180" width="320" height="30" as="geometry" />
        </mxCell>
        <mxCell id="D0aGx_ihcFA379OP37kN-2" value="城市&lt;div&gt;规模&lt;/div&gt;" style="rounded=1;whiteSpace=wrap;html=1;" vertex="1" parent="1">
          <mxGeometry x="100" y="250" width="50" height="50" as="geometry" />
        </mxCell>
        <mxCell id="D0aGx_ihcFA379OP37kN-3" value="环境&lt;div&gt;环保&lt;/div&gt;" style="rounded=1;whiteSpace=wrap;html=1;" vertex="1" parent="1">
          <mxGeometry x="210" y="250" width="50" height="50" as="geometry" />
        </mxCell>
        <mxCell id="D0aGx_ihcFA379OP37kN-4" value="人文&lt;div&gt;底蕴&lt;/div&gt;" style="rounded=1;whiteSpace=wrap;html=1;" vertex="1" parent="1">
          <mxGeometry x="310" y="250" width="50" height="50" as="geometry" />
        </mxCell>
        <mxCell id="D0aGx_ihcFA379OP37kN-5" value="交通&lt;div&gt;便利&lt;/div&gt;" style="rounded=1;whiteSpace=wrap;html=1;" vertex="1" parent="1">
          <mxGeometry x="370" y="250" width="50" height="50" as="geometry" />
        </mxCell>
        <mxCell id="D0aGx_ihcFA379OP37kN-6" value="气候" style="rounded=1;whiteSpace=wrap;html=1;" vertex="1" parent="1">
          <mxGeometry x="430" y="250" width="50" height="50" as="geometry" />
        </mxCell>
        <mxCell id="D0aGx_ihcFA379OP37kN-7" value="美食" style="rounded=1;whiteSpace=wrap;html=1;" vertex="1" parent="1">
          <mxGeometry x="495" y="250" width="50" height="50" as="geometry" />
        </mxCell>
        <mxCell id="D0aGx_ihcFA379OP37kN-8" value="" style="endArrow=none;html=1;rounded=0;entryX=0.5;entryY=1;entryDx=0;entryDy=0;exitX=0.5;exitY=0;exitDx=0;exitDy=0;" edge="1" parent="1" source="D0aGx_ihcFA379OP37kN-2" target="D0aGx_ihcFA379OP37kN-1">
          <mxGeometry width="50" height="50" relative="1" as="geometry">
            <mxPoint x="360" y="320" as="sourcePoint" />
            <mxPoint x="410" y="270" as="targetPoint" />
          </mxGeometry>
        </mxCell>
        <mxCell id="D0aGx_ihcFA379OP37kN-9" value="" style="endArrow=none;html=1;rounded=0;exitX=0.5;exitY=0;exitDx=0;exitDy=0;" edge="1" parent="1" source="D0aGx_ihcFA379OP37kN-3">
          <mxGeometry width="50" height="50" relative="1" as="geometry">
            <mxPoint x="155" y="260" as="sourcePoint" />
            <mxPoint x="320" y="210" as="targetPoint" />
          </mxGeometry>
        </mxCell>
        <mxCell id="D0aGx_ihcFA379OP37kN-10" value="" style="endArrow=none;html=1;rounded=0;exitX=0.5;exitY=0;exitDx=0;exitDy=0;entryX=0.5;entryY=1;entryDx=0;entryDy=0;" edge="1" parent="1" source="D0aGx_ihcFA379OP37kN-4" target="D0aGx_ihcFA379OP37kN-1">
          <mxGeometry width="50" height="50" relative="1" as="geometry">
            <mxPoint x="225" y="260" as="sourcePoint" />
            <mxPoint x="330" y="220" as="targetPoint" />
          </mxGeometry>
        </mxCell>
        <mxCell id="D0aGx_ihcFA379OP37kN-11" value="" style="endArrow=none;html=1;rounded=0;exitX=0.5;exitY=0;exitDx=0;exitDy=0;" edge="1" parent="1" source="D0aGx_ihcFA379OP37kN-5">
          <mxGeometry width="50" height="50" relative="1" as="geometry">
            <mxPoint x="295" y="260" as="sourcePoint" />
            <mxPoint x="320" y="210" as="targetPoint" />
          </mxGeometry>
        </mxCell>
        <mxCell id="D0aGx_ihcFA379OP37kN-12" value="" style="endArrow=none;html=1;rounded=0;exitX=0.5;exitY=0;exitDx=0;exitDy=0;" edge="1" parent="1" source="D0aGx_ihcFA379OP37kN-6">
          <mxGeometry width="50" height="50" relative="1" as="geometry">
            <mxPoint x="305" y="270" as="sourcePoint" />
            <mxPoint x="320" y="210" as="targetPoint" />
          </mxGeometry>
        </mxCell>
        <mxCell id="D0aGx_ihcFA379OP37kN-13" value="" style="endArrow=none;html=1;rounded=0;exitX=0.5;exitY=0;exitDx=0;exitDy=0;" edge="1" parent="1" source="D0aGx_ihcFA379OP37kN-7">
          <mxGeometry width="50" height="50" relative="1" as="geometry">
            <mxPoint x="315" y="280" as="sourcePoint" />
            <mxPoint x="320" y="210" as="targetPoint" />
          </mxGeometry>
        </mxCell>
        <mxCell id="D0aGx_ihcFA379OP37kN-14" value="人口&lt;span style=&quot;background-color: initial;&quot;&gt;数量&lt;/span&gt;" style="rounded=1;whiteSpace=wrap;html=1;" vertex="1" parent="1">
          <mxGeometry x="100" y="330" width="20" height="150" as="geometry" />
        </mxCell>
        <mxCell id="D0aGx_ihcFA379OP37kN-15" value="" style="endArrow=none;html=1;rounded=0;entryX=0.5;entryY=1;entryDx=0;entryDy=0;exitX=0.5;exitY=0;exitDx=0;exitDy=0;" edge="1" parent="1" source="D0aGx_ihcFA379OP37kN-14" target="D0aGx_ihcFA379OP37kN-2">
          <mxGeometry width="50" height="50" relative="1" as="geometry">
            <mxPoint x="220" y="450" as="sourcePoint" />
            <mxPoint x="270" y="400" as="targetPoint" />
          </mxGeometry>
        </mxCell>
        <mxCell id="D0aGx_ihcFA379OP37kN-23" value="绿地面积" style="rounded=1;whiteSpace=wrap;html=1;" vertex="1" parent="1">
          <mxGeometry x="140" y="330" width="20" height="150" as="geometry" />
        </mxCell>
        <mxCell id="D0aGx_ihcFA379OP37kN-24" value="" style="endArrow=none;html=1;rounded=0;entryX=0.5;entryY=1;entryDx=0;entryDy=0;exitX=0.5;exitY=0;exitDx=0;exitDy=0;" edge="1" parent="1" source="D0aGx_ihcFA379OP37kN-23" target="D0aGx_ihcFA379OP37kN-3">
          <mxGeometry width="50" height="50" relative="1" as="geometry">
            <mxPoint x="255" y="450" as="sourcePoint" />
            <mxPoint x="160" y="300" as="targetPoint" />
          </mxGeometry>
        </mxCell>
        <mxCell id="D0aGx_ihcFA379OP37kN-25" value="工业颗粒物排放量" style="rounded=1;whiteSpace=wrap;html=1;" vertex="1" parent="1">
          <mxGeometry x="170" y="330" width="20" height="150" as="geometry" />
        </mxCell>
        <mxCell id="D0aGx_ihcFA379OP37kN-26" value="" style="endArrow=none;html=1;rounded=0;entryX=0.5;entryY=1;entryDx=0;entryDy=0;exitX=0.5;exitY=0;exitDx=0;exitDy=0;" edge="1" parent="1" source="D0aGx_ihcFA379OP37kN-25" target="D0aGx_ihcFA379OP37kN-3">
          <mxGeometry width="50" height="50" relative="1" as="geometry">
            <mxPoint x="265" y="460" as="sourcePoint" />
            <mxPoint x="245" y="310" as="targetPoint" />
          </mxGeometry>
        </mxCell>
        <mxCell id="D0aGx_ihcFA379OP37kN-27" value="工业二氧化硫排放量" style="rounded=1;whiteSpace=wrap;html=1;" vertex="1" parent="1">
          <mxGeometry x="200" y="330" width="20" height="150" as="geometry" />
        </mxCell>
        <mxCell id="D0aGx_ihcFA379OP37kN-28" value="" style="endArrow=none;html=1;rounded=0;exitX=0.5;exitY=0;exitDx=0;exitDy=0;entryX=0.5;entryY=1;entryDx=0;entryDy=0;" edge="1" parent="1" source="D0aGx_ihcFA379OP37kN-27" target="D0aGx_ihcFA379OP37kN-3">
          <mxGeometry width="50" height="50" relative="1" as="geometry">
            <mxPoint x="275" y="470" as="sourcePoint" />
            <mxPoint x="240" y="300" as="targetPoint" />
          </mxGeometry>
        </mxCell>
        <mxCell id="D0aGx_ihcFA379OP37kN-29" value="工业氮氧化物排放量" style="rounded=1;whiteSpace=wrap;html=1;" vertex="1" parent="1">
          <mxGeometry x="240" y="330" width="20" height="150" as="geometry" />
        </mxCell>
        <mxCell id="D0aGx_ihcFA379OP37kN-30" value="" style="endArrow=none;html=1;rounded=0;exitX=0.5;exitY=0;exitDx=0;exitDy=0;entryX=0.5;entryY=1;entryDx=0;entryDy=0;" edge="1" parent="1" source="D0aGx_ihcFA379OP37kN-29" target="D0aGx_ihcFA379OP37kN-3">
          <mxGeometry width="50" height="50" relative="1" as="geometry">
            <mxPoint x="285" y="480" as="sourcePoint" />
            <mxPoint x="240" y="300" as="targetPoint" />
          </mxGeometry>
        </mxCell>
        <mxCell id="D0aGx_ihcFA379OP37kN-31" value="污水处理厂集中处理率" style="rounded=1;whiteSpace=wrap;html=1;" vertex="1" parent="1">
          <mxGeometry x="270" y="330" width="20" height="150" as="geometry" />
        </mxCell>
        <mxCell id="D0aGx_ihcFA379OP37kN-32" value="" style="endArrow=none;html=1;rounded=0;entryX=0.5;entryY=1;entryDx=0;entryDy=0;exitX=0.5;exitY=0;exitDx=0;exitDy=0;" edge="1" parent="1" source="D0aGx_ihcFA379OP37kN-31" target="D0aGx_ihcFA379OP37kN-3">
          <mxGeometry width="50" height="50" relative="1" as="geometry">
            <mxPoint x="295" y="490" as="sourcePoint" />
            <mxPoint x="275" y="340" as="targetPoint" />
          </mxGeometry>
        </mxCell>
        <mxCell id="D0aGx_ihcFA379OP37kN-33" value="生活垃圾无害化处理率" style="rounded=1;whiteSpace=wrap;html=1;" vertex="1" parent="1">
          <mxGeometry x="300" y="330" width="20" height="150" as="geometry" />
        </mxCell>
        <mxCell id="D0aGx_ihcFA379OP37kN-34" value="" style="endArrow=none;html=1;rounded=0;entryX=0.5;entryY=1;entryDx=0;entryDy=0;exitX=0.5;exitY=0;exitDx=0;exitDy=0;" edge="1" parent="1" source="D0aGx_ihcFA379OP37kN-33" target="D0aGx_ihcFA379OP37kN-3">
          <mxGeometry width="50" height="50" relative="1" as="geometry">
            <mxPoint x="400" y="450" as="sourcePoint" />
            <mxPoint x="380" y="300" as="targetPoint" />
          </mxGeometry>
        </mxCell>
        <mxCell id="D0aGx_ihcFA379OP37kN-36" value="全年公共汽车客运总量" style="rounded=1;whiteSpace=wrap;html=1;" vertex="1" parent="1">
          <mxGeometry x="355" y="330" width="20" height="150" as="geometry" />
        </mxCell>
        <mxCell id="D0aGx_ihcFA379OP37kN-37" value="" style="endArrow=none;html=1;rounded=0;exitX=0.5;exitY=0;exitDx=0;exitDy=0;entryX=0.5;entryY=1;entryDx=0;entryDy=0;" edge="1" parent="1" source="D0aGx_ihcFA379OP37kN-36">
          <mxGeometry width="50" height="50" relative="1" as="geometry">
            <mxPoint x="445" y="480" as="sourcePoint" />
            <mxPoint x="395" y="300" as="targetPoint" />
          </mxGeometry>
        </mxCell>
        <mxCell id="D0aGx_ihcFA379OP37kN-38" value="实有出租汽车营运数" style="rounded=1;whiteSpace=wrap;html=1;" vertex="1" parent="1">
          <mxGeometry x="385" y="330" width="20" height="150" as="geometry" />
        </mxCell>
        <mxCell id="D0aGx_ihcFA379OP37kN-39" value="" style="endArrow=none;html=1;rounded=0;entryX=0.5;entryY=1;entryDx=0;entryDy=0;exitX=0.5;exitY=0;exitDx=0;exitDy=0;" edge="1" parent="1" source="D0aGx_ihcFA379OP37kN-38">
          <mxGeometry width="50" height="50" relative="1" as="geometry">
            <mxPoint x="455" y="490" as="sourcePoint" />
            <mxPoint x="395" y="300" as="targetPoint" />
          </mxGeometry>
        </mxCell>
        <mxCell id="D0aGx_ihcFA379OP37kN-40" value="公路客运量" style="rounded=1;whiteSpace=wrap;html=1;" vertex="1" parent="1">
          <mxGeometry x="415" y="330" width="20" height="150" as="geometry" />
        </mxCell>
        <mxCell id="D0aGx_ihcFA379OP37kN-41" value="" style="endArrow=none;html=1;rounded=0;entryX=0.5;entryY=1;entryDx=0;entryDy=0;exitX=0.5;exitY=0;exitDx=0;exitDy=0;" edge="1" parent="1" source="D0aGx_ihcFA379OP37kN-40">
          <mxGeometry width="50" height="50" relative="1" as="geometry">
            <mxPoint x="560" y="450" as="sourcePoint" />
            <mxPoint x="395" y="300" as="targetPoint" />
          </mxGeometry>
        </mxCell>
        <mxCell id="D0aGx_ihcFA379OP37kN-42" value="" style="endArrow=none;html=1;rounded=0;entryX=0.5;entryY=1;entryDx=0;entryDy=0;exitX=0.5;exitY=0;exitDx=0;exitDy=0;" edge="1" parent="1" source="D0aGx_ihcFA379OP37kN-47" target="D0aGx_ihcFA379OP37kN-4">
          <mxGeometry width="50" height="50" relative="1" as="geometry">
            <mxPoint x="335" y="520" as="sourcePoint" />
            <mxPoint x="490" y="270" as="targetPoint" />
            <Array as="points">
              <mxPoint x="330" y="480" />
            </Array>
          </mxGeometry>
        </mxCell>
        <mxCell id="D0aGx_ihcFA379OP37kN-43" value="" style="endArrow=none;html=1;rounded=0;entryX=0.5;entryY=1;entryDx=0;entryDy=0;exitX=0.5;exitY=0;exitDx=0;exitDy=0;" edge="1" parent="1" source="D0aGx_ihcFA379OP37kN-47">
          <mxGeometry width="50" height="50" relative="1" as="geometry">
            <mxPoint x="180" y="590" as="sourcePoint" />
            <mxPoint x="454.5" y="300" as="targetPoint" />
            <Array as="points">
              <mxPoint x="455" y="480" />
            </Array>
          </mxGeometry>
        </mxCell>
        <mxCell id="D0aGx_ihcFA379OP37kN-44" value="" style="endArrow=none;html=1;rounded=0;exitX=0.5;exitY=0;exitDx=0;exitDy=0;entryX=0.5;entryY=1;entryDx=0;entryDy=0;" edge="1" parent="1" source="D0aGx_ihcFA379OP37kN-47" target="D0aGx_ihcFA379OP37kN-7">
          <mxGeometry width="50" height="50" relative="1" as="geometry">
            <mxPoint x="514.5" y="520" as="sourcePoint" />
            <mxPoint x="520" y="320" as="targetPoint" />
            <Array as="points">
              <mxPoint x="520" y="480" />
            </Array>
          </mxGeometry>
        </mxCell>
        <mxCell id="D0aGx_ihcFA379OP37kN-46" value="" style="endArrow=none;html=1;rounded=0;exitX=0.5;exitY=1;exitDx=0;exitDy=0;entryX=0.5;entryY=0;entryDx=0;entryDy=0;" edge="1" parent="1" source="D0aGx_ihcFA379OP37kN-14" target="D0aGx_ihcFA379OP37kN-47">
          <mxGeometry width="50" height="50" relative="1" as="geometry">
            <mxPoint x="110" y="520" as="sourcePoint" />
            <mxPoint x="80" y="550" as="targetPoint" />
          </mxGeometry>
        </mxCell>
        <mxCell id="D0aGx_ihcFA379OP37kN-47" value="北京" style="rounded=1;whiteSpace=wrap;html=1;" vertex="1" parent="1">
          <mxGeometry x="130" y="550" width="40" height="30" as="geometry" />
        </mxCell>
        <mxCell id="D0aGx_ihcFA379OP37kN-48" value="" style="endArrow=none;html=1;rounded=0;exitX=0.5;exitY=1;exitDx=0;exitDy=0;entryX=0.5;entryY=0;entryDx=0;entryDy=0;" edge="1" parent="1" source="D0aGx_ihcFA379OP37kN-23" target="D0aGx_ihcFA379OP37kN-47">
          <mxGeometry width="50" height="50" relative="1" as="geometry">
            <mxPoint x="120" y="490" as="sourcePoint" />
            <mxPoint x="90" y="560" as="targetPoint" />
          </mxGeometry>
        </mxCell>
        <mxCell id="D0aGx_ihcFA379OP37kN-49" value="" style="endArrow=none;html=1;rounded=0;exitX=0.5;exitY=1;exitDx=0;exitDy=0;entryX=0.5;entryY=0;entryDx=0;entryDy=0;" edge="1" parent="1" target="D0aGx_ihcFA379OP37kN-47">
          <mxGeometry width="50" height="50" relative="1" as="geometry">
            <mxPoint x="180" y="480" as="sourcePoint" />
            <mxPoint x="150" y="550" as="targetPoint" />
          </mxGeometry>
        </mxCell>
        <mxCell id="D0aGx_ihcFA379OP37kN-50" value="" style="endArrow=none;html=1;rounded=0;exitX=0.5;exitY=1;exitDx=0;exitDy=0;entryX=0.5;entryY=0;entryDx=0;entryDy=0;" edge="1" parent="1" source="D0aGx_ihcFA379OP37kN-27" target="D0aGx_ihcFA379OP37kN-47">
          <mxGeometry width="50" height="50" relative="1" as="geometry">
            <mxPoint x="140" y="510" as="sourcePoint" />
            <mxPoint x="80" y="550" as="targetPoint" />
          </mxGeometry>
        </mxCell>
        <mxCell id="D0aGx_ihcFA379OP37kN-51" value="" style="endArrow=none;html=1;rounded=0;exitX=0.5;exitY=1;exitDx=0;exitDy=0;entryX=0.5;entryY=0;entryDx=0;entryDy=0;" edge="1" parent="1" source="D0aGx_ihcFA379OP37kN-29" target="D0aGx_ihcFA379OP37kN-47">
          <mxGeometry width="50" height="50" relative="1" as="geometry">
            <mxPoint x="150" y="520" as="sourcePoint" />
            <mxPoint x="80" y="550" as="targetPoint" />
          </mxGeometry>
        </mxCell>
        <mxCell id="D0aGx_ihcFA379OP37kN-52" value="" style="endArrow=none;html=1;rounded=0;exitX=0.5;exitY=1;exitDx=0;exitDy=0;entryX=0.5;entryY=0;entryDx=0;entryDy=0;" edge="1" parent="1" source="D0aGx_ihcFA379OP37kN-31" target="D0aGx_ihcFA379OP37kN-47">
          <mxGeometry width="50" height="50" relative="1" as="geometry">
            <mxPoint x="160" y="530" as="sourcePoint" />
            <mxPoint x="130" y="600" as="targetPoint" />
          </mxGeometry>
        </mxCell>
        <mxCell id="D0aGx_ihcFA379OP37kN-53" value="" style="endArrow=none;html=1;rounded=0;entryX=0.5;entryY=0;entryDx=0;entryDy=0;" edge="1" parent="1" target="D0aGx_ihcFA379OP37kN-47">
          <mxGeometry width="50" height="50" relative="1" as="geometry">
            <mxPoint x="310" y="480" as="sourcePoint" />
            <mxPoint x="140" y="610" as="targetPoint" />
          </mxGeometry>
        </mxCell>
        <mxCell id="D0aGx_ihcFA379OP37kN-72" value="" style="endArrow=none;html=1;rounded=0;exitX=0.5;exitY=0;exitDx=0;exitDy=0;" edge="1" parent="1" source="D0aGx_ihcFA379OP37kN-74">
          <mxGeometry width="50" height="50" relative="1" as="geometry">
            <mxPoint x="209.9999999999999" y="549.9999999999999" as="sourcePoint" />
            <mxPoint x="520" y="480" as="targetPoint" />
          </mxGeometry>
        </mxCell>
        <mxCell id="D0aGx_ihcFA379OP37kN-73" value="" style="endArrow=none;html=1;rounded=0;entryX=0.5;entryY=0;entryDx=0;entryDy=0;" edge="1" parent="1" target="D0aGx_ihcFA379OP37kN-74">
          <mxGeometry width="50" height="50" relative="1" as="geometry">
            <mxPoint x="110" y="480" as="sourcePoint" />
            <mxPoint x="410" y="540" as="targetPoint" />
          </mxGeometry>
        </mxCell>
        <mxCell id="D0aGx_ihcFA379OP37kN-74" value="..." style="rounded=1;whiteSpace=wrap;html=1;" vertex="1" parent="1">
          <mxGeometry x="280" y="550" width="40" height="30" as="geometry" />
        </mxCell>
        <mxCell id="D0aGx_ihcFA379OP37kN-75" value="" style="endArrow=none;html=1;rounded=0;entryX=0.5;entryY=0;entryDx=0;entryDy=0;" edge="1" parent="1" target="D0aGx_ihcFA379OP37kN-74">
          <mxGeometry width="50" height="50" relative="1" as="geometry">
            <mxPoint x="150" y="480" as="sourcePoint" />
            <mxPoint x="420" y="550" as="targetPoint" />
          </mxGeometry>
        </mxCell>
        <mxCell id="D0aGx_ihcFA379OP37kN-76" value="" style="endArrow=none;html=1;rounded=0;entryX=0.5;entryY=0;entryDx=0;entryDy=0;" edge="1" parent="1" target="D0aGx_ihcFA379OP37kN-74">
          <mxGeometry width="50" height="50" relative="1" as="geometry">
            <mxPoint x="180" y="480" as="sourcePoint" />
            <mxPoint x="480" y="540" as="targetPoint" />
          </mxGeometry>
        </mxCell>
        <mxCell id="D0aGx_ihcFA379OP37kN-77" value="" style="endArrow=none;html=1;rounded=0;entryX=0.5;entryY=0;entryDx=0;entryDy=0;" edge="1" parent="1" target="D0aGx_ihcFA379OP37kN-74">
          <mxGeometry width="50" height="50" relative="1" as="geometry">
            <mxPoint x="210" y="480" as="sourcePoint" />
            <mxPoint x="410" y="540" as="targetPoint" />
          </mxGeometry>
        </mxCell>
        <mxCell id="D0aGx_ihcFA379OP37kN-78" value="" style="endArrow=none;html=1;rounded=0;entryX=0.5;entryY=0;entryDx=0;entryDy=0;" edge="1" parent="1" target="D0aGx_ihcFA379OP37kN-74">
          <mxGeometry width="50" height="50" relative="1" as="geometry">
            <mxPoint x="250" y="480" as="sourcePoint" />
            <mxPoint x="410" y="540" as="targetPoint" />
          </mxGeometry>
        </mxCell>
        <mxCell id="D0aGx_ihcFA379OP37kN-79" value="" style="endArrow=none;html=1;rounded=0;entryX=0.5;entryY=0;entryDx=0;entryDy=0;" edge="1" parent="1" target="D0aGx_ihcFA379OP37kN-74">
          <mxGeometry width="50" height="50" relative="1" as="geometry">
            <mxPoint x="280" y="480" as="sourcePoint" />
            <mxPoint x="460" y="590" as="targetPoint" />
          </mxGeometry>
        </mxCell>
        <mxCell id="D0aGx_ihcFA379OP37kN-80" value="" style="endArrow=none;html=1;rounded=0;entryX=0.5;entryY=0;entryDx=0;entryDy=0;" edge="1" parent="1" target="D0aGx_ihcFA379OP37kN-74">
          <mxGeometry width="50" height="50" relative="1" as="geometry">
            <mxPoint x="330" y="480" as="sourcePoint" />
            <mxPoint x="470" y="600" as="targetPoint" />
          </mxGeometry>
        </mxCell>
        <mxCell id="D0aGx_ihcFA379OP37kN-81" value="" style="endArrow=none;html=1;rounded=0;exitX=0.5;exitY=1;exitDx=0;exitDy=0;entryX=0.5;entryY=0;entryDx=0;entryDy=0;" edge="1" parent="1" target="D0aGx_ihcFA379OP37kN-82" source="D0aGx_ihcFA379OP37kN-14">
          <mxGeometry width="50" height="50" relative="1" as="geometry">
            <mxPoint x="440" y="470" as="sourcePoint" />
            <mxPoint x="465" y="540" as="targetPoint" />
          </mxGeometry>
        </mxCell>
        <mxCell id="D0aGx_ihcFA379OP37kN-82" value="上海" style="rounded=1;whiteSpace=wrap;html=1;" vertex="1" parent="1">
          <mxGeometry x="430" y="550" width="40" height="30" as="geometry" />
        </mxCell>
        <mxCell id="D0aGx_ihcFA379OP37kN-83" value="" style="endArrow=none;html=1;rounded=0;entryX=0.5;entryY=0;entryDx=0;entryDy=0;" edge="1" parent="1" target="D0aGx_ihcFA379OP37kN-82">
          <mxGeometry width="50" height="50" relative="1" as="geometry">
            <mxPoint x="150" y="480" as="sourcePoint" />
            <mxPoint x="475" y="550" as="targetPoint" />
          </mxGeometry>
        </mxCell>
        <mxCell id="D0aGx_ihcFA379OP37kN-84" value="" style="endArrow=none;html=1;rounded=0;exitX=0.5;exitY=1;exitDx=0;exitDy=0;entryX=0.5;entryY=0;entryDx=0;entryDy=0;" edge="1" parent="1" target="D0aGx_ihcFA379OP37kN-82" source="D0aGx_ihcFA379OP37kN-25">
          <mxGeometry width="50" height="50" relative="1" as="geometry">
            <mxPoint x="510" y="470" as="sourcePoint" />
            <mxPoint x="535" y="540" as="targetPoint" />
          </mxGeometry>
        </mxCell>
        <mxCell id="D0aGx_ihcFA379OP37kN-85" value="" style="endArrow=none;html=1;rounded=0;entryX=0.5;entryY=0;entryDx=0;entryDy=0;exitX=0.5;exitY=1;exitDx=0;exitDy=0;" edge="1" parent="1" target="D0aGx_ihcFA379OP37kN-82" source="D0aGx_ihcFA379OP37kN-27">
          <mxGeometry width="50" height="50" relative="1" as="geometry">
            <mxPoint x="540" y="470" as="sourcePoint" />
            <mxPoint x="465" y="540" as="targetPoint" />
          </mxGeometry>
        </mxCell>
        <mxCell id="D0aGx_ihcFA379OP37kN-86" value="" style="endArrow=none;html=1;rounded=0;entryX=0.5;entryY=0;entryDx=0;entryDy=0;" edge="1" parent="1" target="D0aGx_ihcFA379OP37kN-82">
          <mxGeometry width="50" height="50" relative="1" as="geometry">
            <mxPoint x="250" y="480" as="sourcePoint" />
            <mxPoint x="465" y="540" as="targetPoint" />
          </mxGeometry>
        </mxCell>
        <mxCell id="D0aGx_ihcFA379OP37kN-87" value="" style="endArrow=none;html=1;rounded=0;entryX=0.5;entryY=0;entryDx=0;entryDy=0;" edge="1" parent="1" target="D0aGx_ihcFA379OP37kN-82">
          <mxGeometry width="50" height="50" relative="1" as="geometry">
            <mxPoint x="280" y="480" as="sourcePoint" />
            <mxPoint x="515" y="590" as="targetPoint" />
          </mxGeometry>
        </mxCell>
        <mxCell id="D0aGx_ihcFA379OP37kN-88" value="" style="endArrow=none;html=1;rounded=0;entryX=0.5;entryY=0;entryDx=0;entryDy=0;" edge="1" parent="1" target="D0aGx_ihcFA379OP37kN-82">
          <mxGeometry width="50" height="50" relative="1" as="geometry">
            <mxPoint x="330" y="480" as="sourcePoint" />
            <mxPoint x="525" y="600" as="targetPoint" />
          </mxGeometry>
        </mxCell>
        <mxCell id="D0aGx_ihcFA379OP37kN-89" value="" style="endArrow=none;html=1;rounded=0;exitX=0.5;exitY=0;exitDx=0;exitDy=0;" edge="1" parent="1" source="D0aGx_ihcFA379OP37kN-82">
          <mxGeometry width="50" height="50" relative="1" as="geometry">
            <mxPoint x="580" y="500" as="sourcePoint" />
            <mxPoint x="454.5" y="480" as="targetPoint" />
          </mxGeometry>
        </mxCell>
        <mxCell id="D0aGx_ihcFA379OP37kN-90" value="" style="endArrow=none;html=1;rounded=0;exitX=0.5;exitY=0;exitDx=0;exitDy=0;" edge="1" parent="1" source="D0aGx_ihcFA379OP37kN-82">
          <mxGeometry width="50" height="50" relative="1" as="geometry">
            <mxPoint x="475" y="550" as="sourcePoint" />
            <mxPoint x="520" y="480" as="targetPoint" />
          </mxGeometry>
        </mxCell>
        <mxCell id="D0aGx_ihcFA379OP37kN-91" value="" style="endArrow=none;html=1;rounded=0;exitX=0.5;exitY=0;exitDx=0;exitDy=0;entryX=0.5;entryY=1;entryDx=0;entryDy=0;" edge="1" parent="1" source="D0aGx_ihcFA379OP37kN-74" target="D0aGx_ihcFA379OP37kN-36">
          <mxGeometry width="50" height="50" relative="1" as="geometry">
            <mxPoint x="430" y="540" as="sourcePoint" />
            <mxPoint x="480" y="490" as="targetPoint" />
          </mxGeometry>
        </mxCell>
        <mxCell id="D0aGx_ihcFA379OP37kN-92" value="" style="endArrow=none;html=1;rounded=0;exitX=0.5;exitY=0;exitDx=0;exitDy=0;entryX=0.5;entryY=1;entryDx=0;entryDy=0;" edge="1" parent="1" source="D0aGx_ihcFA379OP37kN-82" target="D0aGx_ihcFA379OP37kN-36">
          <mxGeometry width="50" height="50" relative="1" as="geometry">
            <mxPoint x="345" y="560" as="sourcePoint" />
            <mxPoint x="530" y="490" as="targetPoint" />
          </mxGeometry>
        </mxCell>
        <mxCell id="D0aGx_ihcFA379OP37kN-93" value="" style="endArrow=none;html=1;rounded=0;entryX=0.5;entryY=1;entryDx=0;entryDy=0;exitX=0.5;exitY=0;exitDx=0;exitDy=0;" edge="1" parent="1" source="D0aGx_ihcFA379OP37kN-82" target="D0aGx_ihcFA379OP37kN-38">
          <mxGeometry width="50" height="50" relative="1" as="geometry">
            <mxPoint x="500" y="550" as="sourcePoint" />
            <mxPoint x="540" y="500" as="targetPoint" />
          </mxGeometry>
        </mxCell>
        <mxCell id="D0aGx_ihcFA379OP37kN-94" value="" style="endArrow=none;html=1;rounded=0;exitX=0.5;exitY=0;exitDx=0;exitDy=0;entryX=0.5;entryY=1;entryDx=0;entryDy=0;" edge="1" parent="1" source="D0aGx_ihcFA379OP37kN-82" target="D0aGx_ihcFA379OP37kN-40">
          <mxGeometry width="50" height="50" relative="1" as="geometry">
            <mxPoint x="365" y="580" as="sourcePoint" />
            <mxPoint x="550" y="510" as="targetPoint" />
          </mxGeometry>
        </mxCell>
        <mxCell id="D0aGx_ihcFA379OP37kN-95" value="" style="endArrow=none;html=1;rounded=0;exitX=0.558;exitY=-0.022;exitDx=0;exitDy=0;exitPerimeter=0;" edge="1" parent="1" source="D0aGx_ihcFA379OP37kN-47">
          <mxGeometry width="50" height="50" relative="1" as="geometry">
            <mxPoint x="130" y="550" as="sourcePoint" />
            <mxPoint x="370" y="480" as="targetPoint" />
          </mxGeometry>
        </mxCell>
        <mxCell id="D0aGx_ihcFA379OP37kN-96" value="" style="endArrow=none;html=1;rounded=0;entryX=0.5;entryY=1;entryDx=0;entryDy=0;exitX=0.5;exitY=0;exitDx=0;exitDy=0;" edge="1" parent="1" source="D0aGx_ihcFA379OP37kN-47" target="D0aGx_ihcFA379OP37kN-38">
          <mxGeometry width="50" height="50" relative="1" as="geometry">
            <mxPoint x="140" y="560" as="sourcePoint" />
            <mxPoint x="380" y="490" as="targetPoint" />
          </mxGeometry>
        </mxCell>
        <mxCell id="D0aGx_ihcFA379OP37kN-97" value="" style="endArrow=none;html=1;rounded=0;entryX=0.5;entryY=1;entryDx=0;entryDy=0;exitX=0.5;exitY=0;exitDx=0;exitDy=0;" edge="1" parent="1" source="D0aGx_ihcFA379OP37kN-47" target="D0aGx_ihcFA379OP37kN-40">
          <mxGeometry width="50" height="50" relative="1" as="geometry">
            <mxPoint x="140" y="560" as="sourcePoint" />
            <mxPoint x="405" y="490" as="targetPoint" />
          </mxGeometry>
        </mxCell>
      </root>
    </mxGraphModel>
  </diagram>
</mxfile>
